<svg xmlns="http://www.w3.org/2000/svg" width="48" height="48" viewBox="0 0 48 48" fill="none">
  <!-- Sun -->
  <circle cx="32" cy="16" r="8" fill="#FBBF24"/>
  <!-- Sun rays -->
  <g stroke="#FBBF24" stroke-width="2" stroke-linecap="round">
    <line x1="32" y1="2" x2="32" y2="5"/>
    <line x1="32" y1="27" x2="32" y2="30"/>
    <line x1="18" y1="16" x2="21" y2="16"/>
    <line x1="43" y1="16" x2="46" y2="16"/>
    <line x1="22.1" y1="6.1" x2="24.2" y2="8.2"/>
    <line x1="39.8" y1="23.8" x2="41.9" y2="25.9"/>
    <line x1="41.9" y1="6.1" x2="39.8" y2="8.2"/>
    <line x1="24.2" y1="23.8" x2="22.1" y2="25.9"/>
  </g>
  <!-- Cloud -->
  <path d="M12 38c-4.4 0-8-3.6-8-8 0-3.7 2.5-6.8 6-7.7C10.3 18.1 14.3 15 19 15c4.1 0 7.6 2.4 9.2 5.8C29 20.3 30 20 31 20c4.4 0 8 3.6 8 8s-3.6 8-8 8H12z" fill="#E2E8F0"/>
  <path d="M12 38c-4.4 0-8-3.6-8-8 0-3.7 2.5-6.8 6-7.7C10.3 18.1 14.3 15 19 15c4.1 0 7.6 2.4 9.2 5.8C29 20.3 30 20 31 20c4.4 0 8 3.6 8 8s-3.6 8-8 8H12z" fill="white" opacity="0.4"/>
</svg>
